<?xml version="1.0" encoding="utf-8"?>
<!-- Generator: Adobe Illustrator 24.2.0, SVG Export Plug-In . SVG Version: 6.00 Build 0)  -->
<svg version="1.1" id="Layer_1" xmlns="http://www.w3.org/2000/svg" xmlns:xlink="http://www.w3.org/1999/xlink" x="0px" y="0px"
	 viewBox="0 0 792 612" style="enable-background:new 0 0 792 612;" xml:space="preserve">
<style type="text/css">
	.st0{fill-rule:evenodd;clip-rule:evenodd;fill:#0072BC;}
	.st1{fill-rule:evenodd;clip-rule:evenodd;fill:#F58220;}
	.st2{fill-rule:evenodd;clip-rule:evenodd;fill:#72BF44;}
	.st3{fill:#FFFFFF;}
	.st4{fill-rule:evenodd;clip-rule:evenodd;fill:#00AEEF;}
	.st5{clip-path:url(#SVGID_2_);}
</style>
<path class="st0" d="M326.7,200.6c-33,0-66,0-98.9,0c-29.8,4.1-50.6,20.3-58.5,51.1l-35.8,162.2c32.8,0,65.5,0,98.3,0
	c29.1-2.9,49-24.6,56.8-47.5C301.3,311.2,314,255.9,326.7,200.6"/>
<path class="st1" d="M502.6,145.4h-94.8c-27.1,3.2-49.6,19.2-60.8,50.1l-58.1,271.2h96.8c33.5-3.7,54.4-26.4,58.1-50.1L502.6,145.4z
	"/>
<path class="st2" d="M658.5,200.6c-33,0-66,0-98.9,0c-29.8,4.1-50.6,20.3-58.5,51.1l-35.8,162.2c32.8,0,65.5,0,98.3,0
	c29.1-2.9,49-24.6,56.8-47.5C633.1,311.2,645.8,255.9,658.5,200.6"/>
<path class="st3" d="M560.2,274.9h-21.4c-5.1,0-9.2-1.6-12.4-4.8c-3.2-3.2-4.8-7.3-4.8-12.1c0-1.4,0.2-2.9,0.5-4.4h85.2
	c5.1,0,9.2,1.6,12.4,4.8c3.2,3.2,4.8,7.2,4.8,12c0,1.5-0.2,3.1-0.5,4.6h-42.6l-13.6,63.8c-1.2,5.9-4.4,10.9-9.4,15
	c-5,4.1-10.5,6.2-16.4,6.2L560.2,274.9z"/>
<path class="st3" d="M210.7,253.4c-5.9,0-11.4,2.1-16.4,6.3c-5,4.2-8.2,9.2-9.5,15.1l-18.2,85.5c5.9,0,13.5-2.1,18.6-6.3
	c5-4.2,8.1-9.2,9.4-15.1l4.6-21.4h40.6c5.9,0,11.4-2.1,16.5-6.3c5.1-4.2,8.2-9.2,9.5-15.1h-62l4.6-21.4h62c5.9,0,11.4-2.1,16.4-6.3
	c5-4.2,8.2-9.2,9.5-15.1H210.7z"/>
<path class="st3" d="M376.6,274.8H433l-4.6,21.4h-56.8L376.6,274.8z M456,274.8c0.3-1.5,0.5-3.1,0.5-4.6c0-4.8-1.6-8.8-4.9-12
	c-3.3-3.2-7.4-4.8-12.5-4.8h-79.9l-0.1-0.2l0,0.2h0c-0.1,0.3-0.1,0.5-0.1,0.8L344.5,321l0,0l-8.3,39.3c5.9,0,11.4-2.1,16.4-6.3
	c5-4.2,8.2-9.2,9.4-15.1l4.5-21.2l0,0l0-0.2h58.9c5.9,0,11.4-2.1,16.4-6.2c5-4.1,8.2-9.2,9.5-15.2L456,274.8z"/>
<path class="st4" d="M640.6,400.4h2.9c1.4,0,2.3-0.2,2.8-0.6c0.5-0.4,0.7-0.9,0.7-1.6c0-0.4-0.1-0.8-0.4-1.2c-0.2-0.3-0.6-0.6-1-0.8
	c-0.4-0.2-1.2-0.3-2.4-0.3h-2.7V400.4z M638.3,408.6V394h5c1.7,0,3,0.1,3.7,0.4c0.8,0.3,1.4,0.7,1.8,1.4c0.5,0.7,0.7,1.4,0.7,2.1
	c0,1.1-0.4,2-1.1,2.8c-0.8,0.8-1.8,1.2-3,1.3c0.5,0.2,0.9,0.5,1.2,0.8c0.6,0.6,1.3,1.5,2.2,2.9l1.8,2.8h-2.9l-1.3-2.3
	c-1-1.8-1.8-2.9-2.5-3.4c-0.4-0.3-1.1-0.5-1.9-0.5h-1.4v6.2H638.3z M644.2,389.8c-1.9,0-3.8,0.5-5.6,1.5c-1.8,1-3.2,2.4-4.2,4.2
	c-1,1.8-1.5,3.7-1.5,5.7c0,1.9,0.5,3.8,1.5,5.6c1,1.8,2.4,3.2,4.2,4.2c1.8,1,3.7,1.5,5.6,1.5c1.9,0,3.8-0.5,5.6-1.5
	c1.8-1,3.2-2.4,4.2-4.2c1-1.8,1.5-3.7,1.5-5.6c0-2-0.5-3.9-1.5-5.7c-1-1.8-2.4-3.2-4.2-4.2C648,390.3,646.1,389.8,644.2,389.8z
	 M644.2,387.5c2.3,0,4.5,0.6,6.7,1.7c2.2,1.2,3.9,2.8,5.1,5c1.2,2.2,1.8,4.4,1.8,6.8c0,2.3-0.6,4.6-1.8,6.7c-1.2,2.2-2.9,3.8-5,5
	c-2.1,1.2-4.4,1.8-6.7,1.8s-4.6-0.6-6.7-1.8c-2.1-1.2-3.8-2.9-5-5c-1.2-2.1-1.8-4.4-1.8-6.7c0-2.4,0.6-4.6,1.8-6.8
	c1.2-2.2,2.9-3.8,5.1-5C639.7,388.1,642,387.5,644.2,387.5z"/>
<g>
	<defs>
		<rect id="SVGID_1_" x="984.6" y="-139.6" width="1199.6" height="938"/>
	</defs>
	<clipPath id="SVGID_2_">
		<use xlink:href="#SVGID_1_"  style="overflow:visible;"/>
	</clipPath>
	<g class="st5">
		<defs>
			<rect id="SVGID_3_" x="984.6" y="-139.6" width="1199.6" height="938"/>
		</defs>
		<clipPath id="SVGID_4_">
			<use xlink:href="#SVGID_3_"  style="overflow:visible;"/>
		</clipPath>
		<g style="clip-path:url(#SVGID_4_);">
			
				
		</g>
	</g>
</g>
</svg>
